<svg width="54" height="54" viewBox="0 0 54 54" fill="none" xmlns="http://www.w3.org/2000/svg">
<path d="M36.5581 17.6454C37.2808 16.8516 38.5258 16.7803 39.3389 17.4857C40.1519 18.1913 40.2252 19.4067 39.5024 20.2005L24.7957 36.3544C24.4219 36.7649 23.8861 36.9999 23.3235 37C22.761 37 22.2251 36.7648 21.8513 36.3544L14.4974 28.277C13.7749 27.4832 13.848 26.2676 14.661 25.5621C15.474 24.8567 16.7191 24.9283 17.4418 25.7218L23.3225 32.1818L36.5581 17.6454Z" fill="#1A35A8"/>
<path d="M50.0301 7.54468C50.0301 5.57114 48.4298 3.971 46.4563 3.97088H7.54468C5.57107 3.97088 3.97088 5.57107 3.97088 7.54468V46.4563C3.97099 48.4298 5.57114 50.0301 7.54468 50.0301H46.4563C48.4298 50.03 50.03 48.4298 50.0301 46.4563V7.54468ZM54 46.4563C53.9999 50.6227 50.6227 53.9999 46.4563 54H7.54468C3.37824 54 0.000110353 50.6227 0 46.4563V7.54468C0 3.37817 3.37817 0 7.54468 0H46.4563C50.6227 0.000112478 54 3.37824 54 7.54468V46.4563Z" fill="#F56530"/>
</svg>
