<svg width="24" height="14" viewBox="0 0 24 14" fill="none" xmlns="http://www.w3.org/2000/svg">
<path fill-rule="evenodd" clip-rule="evenodd" d="M3.52582 0H0.900225C0.150045 0 0 0.346906 0 0.729327C0 1.41245 0.890145 4.80038 4.14465 9.28119C6.31432 12.3412 9.37117 14 12.1528 14C13.8218 14 14.0283 13.6316 14.0283 12.997V10.6842C14.0283 9.94737 14.1864 9.80029 14.7148 9.80029C15.1043 9.80029 15.7719 9.99158 17.3296 11.467C19.1099 13.2156 19.4034 14 20.4047 14H23.0303C23.7805 14 24.1556 13.6316 23.9392 12.9045C23.7025 12.1799 22.8525 11.1285 21.7246 9.88231C21.1126 9.17192 20.1947 8.40693 19.9165 8.02436C19.5271 7.53259 19.6384 7.31397 19.9165 6.87687C19.9165 6.87687 23.1154 2.45066 23.4493 0.948021C23.6161 0.401505 23.4493 0 22.6552 0H20.0296C19.3621 0 19.0543 0.346906 18.8873 0.729327C18.8873 0.729327 17.5522 3.92604 15.6607 6.00254C15.0487 6.60358 14.7705 6.79486 14.4367 6.79486C14.2698 6.79486 14.0282 6.60358 14.0282 6.05721V0.948021C14.0282 0.292232 13.8345 0 13.2781 0H9.15209C8.73494 0 8.48399 0.304316 8.48399 0.592789C8.48399 1.21439 9.42974 1.35778 9.52724 3.10638V6.90421C9.52724 7.73684 9.37409 7.88782 9.04034 7.88782C8.15025 7.88782 5.98507 4.67681 4.70092 1.00262C4.4493 0.288474 4.19685 0 3.52582 0Z" fill="#1A35A8"/>
</svg>
