<svg width="24" height="24" viewBox="0 0 24 24" fill="none" xmlns="http://www.w3.org/2000/svg">
<path d="M18.4827 4.26035C18.8298 3.91322 19.3925 3.91322 19.7396 4.26035C20.0868 4.60749 20.0868 5.17017 19.7396 5.51731L13.257 12L19.7396 18.4827L19.8004 18.5504C20.0852 18.8995 20.0651 19.4142 19.7396 19.7396C19.4142 20.0651 18.8995 20.0852 18.5504 19.8004L18.4827 19.7396L12 13.257L5.51731 19.7396C5.17017 20.0868 4.60749 20.0868 4.26035 19.7396C3.91322 19.3925 3.91322 18.8298 4.26035 18.4827L10.743 12L4.26035 5.51731C3.91322 5.17017 3.91322 4.60749 4.26035 4.26035C4.60749 3.91322 5.17017 3.91322 5.51731 4.26035L12 10.743L18.4827 4.26035Z" fill="#1A35A8"/>
</svg>
