<svg width="34" height="34" viewBox="0 0 34 34" fill="none" xmlns="http://www.w3.org/2000/svg">
<path d="M24.1094 0C24.6617 0 25.1094 0.447715 25.1094 1V1.77734H29.4443C31.9603 1.77734 34 3.81704 34 6.33301V29.4443C33.9998 31.9601 31.9602 34 29.4443 34H4.55566C2.03981 34 0.00017729 31.9601 0 29.4443V6.33301C0 3.81704 2.0397 1.77734 4.55566 1.77734H8.89062V1C8.89062 0.447715 9.33834 0 9.89062 0C10.4429 0 10.8906 0.447715 10.8906 1V1.77734H23.1094V1C23.1094 0.447715 23.5571 0 24.1094 0ZM2 29.4443C2.00018 30.8556 3.14438 32 4.55566 32H29.4443C30.8556 32 31.9998 30.8556 32 29.4443V10.5205C31.8166 10.745 31.5381 10.8887 31.2256 10.8887H2.78125C2.4645 10.8887 2.18322 10.7405 2 10.5107V29.4443ZM9.89355 23.5C10.722 23.5 11.3936 24.1716 11.3936 25V25.0029C11.3936 25.8314 10.722 26.5029 9.89355 26.5029H9.89062C9.0622 26.5029 8.39062 25.8314 8.39062 25.0029V25C8.39062 24.1716 9.0622 23.5 9.89062 23.5H9.89355ZM17.0029 23.5C17.8314 23.5 18.5029 24.1716 18.5029 25V25.0029C18.5029 25.8314 17.8314 26.5029 17.0029 26.5029H17C16.1716 26.5029 15.5 25.8314 15.5 25.0029V25C15.5 24.1716 16.1716 23.5 17 23.5H17.0029ZM24.1123 23.5C24.9407 23.5 25.6123 24.1716 25.6123 25V25.0029C25.6123 25.8314 24.9407 26.5029 24.1123 26.5029H24.1094C23.2809 26.5029 22.6094 25.8314 22.6094 25.0029V25C22.6094 24.1716 23.2809 23.5 24.1094 23.5H24.1123ZM9.89355 16.3887C10.722 16.3887 11.3936 17.0602 11.3936 17.8887V17.8916C11.3936 18.72 10.722 19.3916 9.89355 19.3916H9.89062C9.0622 19.3916 8.39062 18.72 8.39062 17.8916V17.8887C8.39062 17.0602 9.0622 16.3887 9.89062 16.3887H9.89355ZM17.0029 16.3887C17.8314 16.3887 18.5029 17.0602 18.5029 17.8887V17.8916C18.5029 18.72 17.8314 19.3916 17.0029 19.3916H17C16.1716 19.3916 15.5 18.72 15.5 17.8916V17.8887C15.5 17.0602 16.1716 16.3887 17 16.3887H17.0029ZM24.1123 16.3887C24.9407 16.3887 25.6123 17.0602 25.6123 17.8887V17.8916C25.6123 18.72 24.9407 19.3916 24.1123 19.3916H24.1094C23.2809 19.3916 22.6094 18.72 22.6094 17.8916V17.8887C22.6094 17.0602 23.2809 16.3887 24.1094 16.3887H24.1123ZM4.55566 3.77734C3.14427 3.77734 2 4.92161 2 6.33301V9.26562C2.18324 9.03617 2.46477 8.88867 2.78125 8.88867H31.2256C31.5378 8.88867 31.8166 9.03171 32 9.25586V6.33301C32 4.92161 30.8557 3.77734 29.4443 3.77734H25.1094V4.55566C25.1093 5.1079 24.6616 5.55566 24.1094 5.55566C23.5571 5.55566 23.1094 5.1079 23.1094 4.55566V3.77734H10.8906V4.55566C10.8906 5.1079 10.4429 5.55566 9.89062 5.55566C9.33838 5.55566 8.89068 5.1079 8.89062 4.55566V3.77734H4.55566Z" fill="#F56530"/>
</svg>
