<svg width="20" height="16" viewBox="0 0 20 16" fill="none" xmlns="http://www.w3.org/2000/svg">
<path d="M1.22615 6.96805C1.22615 6.96805 10.0717 3.45571 13.1395 2.21897C14.3155 1.72428 18.3036 0.141253 18.3036 0.141253C18.3036 0.141253 20.1443 -0.55132 19.9909 1.13064C19.9398 1.82322 19.5307 4.24722 19.1217 6.86911C18.5081 10.5793 17.8435 14.6358 17.8435 14.6358C17.8435 14.6358 17.7412 15.7736 16.872 15.9715C16.0028 16.1694 14.5711 15.2789 14.3155 15.0811C14.111 14.9326 10.4807 12.7065 9.15133 11.6182C8.79341 11.3214 8.38437 10.7277 9.20246 10.0352C11.0431 8.40266 13.2417 6.37441 14.5711 5.08821C15.1847 4.49457 15.7982 3.10942 13.2417 4.79139C9.6115 7.2154 6.03238 9.49099 6.03238 9.49099C6.03238 9.49099 5.2143 9.98569 3.6804 9.54046C2.14649 9.09524 0.356936 8.5016 0.356936 8.5016C0.356936 8.5016 -0.870188 7.75956 1.22615 6.96805Z" fill="#1A35A8"/>
</svg>
