<svg width="33" height="29" viewBox="0 0 33 29" fill="none" xmlns="http://www.w3.org/2000/svg">
<path d="M13.8199 1.52624C15.0111 -0.508799 17.9887 -0.508695 19.1799 1.52624L32.5807 24.421C33.7718 26.456 32.2836 28.9997 29.9014 29H3.09992C0.717529 29 -0.772033 26.4561 0.419158 24.421L13.8199 1.52624ZM3.09992 25.9474H29.9014L16.5007 3.05256L3.09992 25.9474Z" fill="#F56530"/>
<path d="M18.821 21.3683C18.821 22.6328 17.7818 23.6578 16.4999 23.6578C15.218 23.6578 14.1788 22.6328 14.1788 21.3683C14.1788 20.1039 15.218 19.0788 16.4999 19.0788C17.7818 19.0788 18.821 20.1039 18.821 21.3683Z" fill="#F56530"/>
<path d="M18.0473 10.6842V15.2631C18.0473 16.1061 17.3545 16.7894 16.4999 16.7894C15.6453 16.7894 14.9525 16.1061 14.9525 15.2631V10.6842C14.9525 9.8412 15.6453 9.15784 16.4999 9.15784C17.3545 9.15784 18.0473 9.8412 18.0473 10.6842Z" fill="#F56530"/>
</svg>
