<svg width="24" height="24" viewBox="0 0 24 24" fill="none" xmlns="http://www.w3.org/2000/svg">
<path d="M19.2929 3.29289C19.6834 2.90237 20.3164 2.90237 20.707 3.29289C21.0975 3.68342 21.0975 4.31643 20.707 4.70696L13.414 11.9999L20.707 19.2929L20.7753 19.3691C21.0957 19.7618 21.0731 20.3408 20.707 20.707C20.3408 21.0731 19.7618 21.0957 19.3691 20.7753L19.2929 20.707L11.9999 13.414L4.70696 20.707C4.31643 21.0975 3.68342 21.0975 3.29289 20.707C2.90237 20.3164 2.90237 19.6834 3.29289 19.2929L10.5859 11.9999L3.29289 4.70696C2.90237 4.31643 2.90237 3.68342 3.29289 3.29289C3.68342 2.90237 4.31643 2.90237 4.70696 3.29289L11.9999 10.5859L19.2929 3.29289Z" fill="white"/>
</svg>
