<svg width="195" height="74" viewBox="0 0 195 74" fill="none" xmlns="http://www.w3.org/2000/svg">
<g clip-path="url(#clip0_130_3184)">
<path d="M96.7126 25.9619C98.0968 24.2678 99.576 23.0079 101.753 22.7432V34.4747H99.4915V26.2266L96.776 29.096H96.6069L93.9125 26.2161V34.4853H91.6514V22.7538C93.828 23.0185 95.2967 24.2784 96.702 25.9725L96.7126 25.9619Z" fill="#F93C3C"/>
<path d="M103.761 28.6197C103.761 25.0197 106.254 22.5845 109.678 22.5845C113.101 22.5845 115.637 25.0197 115.637 28.6197C115.637 32.2196 113.112 34.6549 109.678 34.6549C106.244 34.6549 103.761 32.0608 103.761 28.6197ZM113.207 28.6197C113.207 26.4915 111.781 24.935 109.699 24.935C107.617 24.935 106.191 26.4915 106.191 28.6197C106.191 30.7479 107.617 32.3043 109.699 32.3043C111.781 32.3043 113.207 30.7479 113.207 28.6197Z" fill="#F93C3C"/>
<path d="M117.296 28.6197C117.296 24.935 119.874 22.5845 123.382 22.5845C123.868 22.5845 124.238 22.6162 124.618 22.7327V25.0621C124.238 24.9668 123.9 24.9244 123.393 24.9244C121.216 24.9244 119.716 26.3538 119.716 28.6091C119.716 30.8643 121.227 32.2937 123.393 32.2937C123.9 32.2937 124.227 32.262 124.618 32.1561V34.4537C124.238 34.6019 123.847 34.6337 123.382 34.6337C119.874 34.6337 117.296 32.1137 117.296 28.5985V28.6197Z" fill="#F93C3C"/>
<path d="M129.605 29.435H129.119V34.4855H126.773V22.7539H129.119V27.2644H129.743L131.254 22.7539H133.684L131.655 28.3656L133.832 34.4855H131.285L129.616 29.435H129.605Z" fill="#F93C3C"/>
<path d="M135.079 28.6197C135.079 25.0197 137.573 22.5845 140.996 22.5845C144.42 22.5845 146.956 25.0197 146.956 28.6197C146.956 32.2196 144.43 34.6549 140.996 34.6549C137.562 34.6549 135.079 32.0608 135.079 28.6197ZM144.525 28.6197C144.525 26.4915 143.099 24.935 141.017 24.935C138.936 24.935 137.509 26.4915 137.509 28.6197C137.509 30.7479 138.936 32.3043 141.017 32.3043C143.099 32.3043 144.525 30.7479 144.525 28.6197Z" fill="#F93C3C"/>
<path d="M148.963 22.7432H150.801C153.728 22.7432 154.986 23.8867 154.986 25.8984C154.986 26.7984 154.521 27.709 153.749 28.0796C155.07 28.5878 155.609 29.6572 155.609 31.076C155.609 33.0877 154.109 34.4747 151.14 34.4747H148.963V22.7432ZM152.724 26.0678C152.724 25.1467 152.238 24.7655 151.14 24.7655V27.3596C152.228 27.3596 152.724 26.9043 152.724 26.0678ZM153.337 30.9066C153.337 29.8478 152.714 29.3607 151.129 29.3607V32.463C152.703 32.463 153.337 31.9548 153.337 30.9066Z" fill="#F93C3C"/>
<path d="M157.024 28.6197C157.024 24.935 159.603 22.5845 163.111 22.5845C163.597 22.5845 163.966 22.6162 164.347 22.7327V25.0621C163.966 24.9668 163.628 24.9244 163.121 24.9244C160.944 24.9244 159.444 26.3538 159.444 28.6091C159.444 30.8643 160.955 32.2937 163.121 32.2937C163.628 32.2937 163.956 32.262 164.347 32.1561V34.4537C163.966 34.6019 163.575 34.6337 163.111 34.6337C159.603 34.6337 157.024 32.1137 157.024 28.5985V28.6197Z" fill="#F93C3C"/>
<path d="M169.355 29.435H168.869V34.4855H166.523V22.7539H168.869V27.2644H169.493L171.004 22.7539H173.434L171.405 28.3656L173.582 34.4855H171.035L169.366 29.435H169.355Z" fill="#F93C3C"/>
<path d="M174.818 28.6197C174.818 25.0197 177.312 22.5845 180.735 22.5845C184.159 22.5845 186.695 25.0197 186.695 28.6197C186.695 32.2196 184.169 34.6549 180.735 34.6549C177.301 34.6549 174.818 32.0608 174.818 28.6197ZM184.275 28.6197C184.275 26.4915 182.849 24.935 180.767 24.935C178.686 24.935 177.259 26.4915 177.259 28.6197C177.259 30.7479 178.686 32.3043 180.767 32.3043C182.849 32.3043 184.275 30.7479 184.275 28.6197Z" fill="#F93C3C"/>
<path d="M188.702 22.7432H194.144V24.9243H191.048V27.2537H193.552V29.4348H191.048V32.3042H194.397V34.4853H188.713V22.7538L188.702 22.7432Z" fill="#F93C3C"/>
<path d="M91.6621 45.3809C91.6621 41.781 94.1557 39.3457 97.5792 39.3457C101.003 39.3457 103.539 41.781 103.539 45.3809C103.539 48.9808 101.013 51.4161 97.5792 51.4161C94.1452 51.4161 91.6621 48.822 91.6621 45.3809ZM101.108 45.3809C101.108 43.2527 99.6819 41.6963 97.6003 41.6963C95.5188 41.6963 94.0923 43.2527 94.0923 45.3809C94.0923 47.5091 95.5188 49.0655 97.6003 49.0655C99.6819 49.0655 101.108 47.5091 101.108 45.3809Z" fill="#F93C3C"/>
<path d="M105.208 39.5151H111.209V41.6963H107.543V43.5386C110.819 43.5386 111.981 45.3809 111.981 47.3927C111.981 49.8597 110.311 51.2467 107.543 51.2467H105.197V39.5151H105.208ZM109.561 47.3927C109.561 46.3021 108.864 45.7197 107.554 45.7197V49.0762C108.853 49.0762 109.561 48.4938 109.561 47.4032V47.3927Z" fill="#F93C3C"/>
<path d="M113.492 39.5151H115.331C118.68 39.5151 120.18 40.8598 120.18 43.3692C120.18 45.3809 119.029 47.2232 115.827 47.2232V51.2467H113.481V39.5151H113.492ZM117.845 43.3692C117.845 42.2786 117.148 41.6963 115.838 41.6963V45.0527C117.137 45.0527 117.845 44.4704 117.845 43.3798V43.3692Z" fill="#F93C3C"/>
<path d="M126.055 39.5151H126.393L131.761 51.2467H129.299L128.549 49.4891H123.9L123.149 51.2467H120.688L126.055 39.5151ZM127.661 47.3927L126.224 44.0362L124.787 47.3927H127.661Z" fill="#F93C3C"/>
<path d="M132.427 51.0665V48.8325C132.744 49.0654 133.335 49.2348 133.811 49.2348H133.874C134.73 49.2348 135.227 48.6101 135.227 47.7313C135.227 46.7572 134.561 46.2172 133.536 46.2172H133.357V44.0361H133.536C134.477 44.0361 134.973 43.5384 134.973 42.6914C134.973 42.0243 134.508 41.5161 133.705 41.5161C133.209 41.5161 132.786 41.6537 132.501 41.8655V39.5997C132.754 39.462 133.283 39.335 134.043 39.335C135.935 39.335 137.361 40.5949 137.361 42.522C137.361 43.6337 136.822 44.6819 135.977 45.0525C137.002 45.4231 137.615 46.5984 137.615 47.8901C137.615 50.0395 136.188 51.4159 134.466 51.4159C133.843 51.4159 133.04 51.3524 132.427 51.0665Z" fill="#F93C3C"/>
<path d="M138.703 45.3809C138.703 41.781 141.197 39.3457 144.62 39.3457C148.044 39.3457 150.58 41.781 150.58 45.3809C150.58 48.9808 148.054 51.4161 144.62 51.4161C141.186 51.4161 138.703 48.822 138.703 45.3809ZM148.16 45.3809C148.16 43.2527 146.733 41.6963 144.652 41.6963C142.57 41.6963 141.144 43.2527 141.144 45.3809C141.144 47.5091 142.57 49.0655 144.652 49.0655C146.733 49.0655 148.16 47.5091 148.16 45.3809Z" fill="#F93C3C"/>
<path d="M152.26 39.5151H154.098C157.025 39.5151 158.283 40.6586 158.283 42.6704C158.283 43.5704 157.818 44.4809 157.046 44.8515C158.367 45.3598 158.906 46.4291 158.906 47.8479C158.906 49.8597 157.406 51.2467 154.436 51.2467H152.26V39.5151ZM156.021 42.8292C156.021 41.908 155.535 41.5269 154.436 41.5269V44.1209C155.525 44.1209 156.021 43.6657 156.021 42.8292ZM156.634 47.6785C156.634 46.6197 156.011 46.1327 154.426 46.1327V49.235C156 49.235 156.634 48.7268 156.634 47.6785Z" fill="#F93C3C"/>
<path d="M164.685 39.5151H165.023L170.391 51.2467H167.929L167.179 49.4891H162.53L161.779 51.2467H159.317L164.685 39.5151ZM166.291 47.3927L164.854 44.0362L163.417 47.3927H166.291Z" fill="#F93C3C"/>
<path d="M176.076 46.1856H173.73V51.2467H171.385V39.5151H173.73V44.0045H176.076V39.5151H178.422V51.2467H176.076V46.1856Z" fill="#F93C3C"/>
<path d="M180.429 39.5151H182.69V45.148L186.969 39.3457H187.307V51.2467H185.046V45.6138L180.767 51.4161H180.429V39.5151Z" fill="#F93C3C"/>
<path d="M189.305 39.5151H194.746V41.6963H191.65V44.0257H194.155V46.2068H191.65V49.0762H195V51.2573H189.315V39.5257L189.305 39.5151Z" fill="#F93C3C"/>
<path d="M58.5578 0.0317383C55.1766 0.0952667 49.9146 0.487025 45.6353 2.23406C42.3914 3.55756 39.3484 5.98223 36.9498 8.29043C34.5513 5.99282 31.5082 3.55756 28.2644 2.23406C23.9745 0.487025 18.7125 0.0952667 15.3419 0.0317383H9.77344V57.2602H15.3419V5.61165C18.2581 5.66459 22.7277 5.99282 26.1617 7.40103C30.8637 9.31747 35.46 14.495 36.9392 16.3268C38.4185 14.495 43.0254 9.31747 47.7274 7.40103C51.1614 6.00341 55.6309 5.66459 58.5578 5.61165V57.2602H64.1262V0.0317383H58.5578Z" fill="#F93C3C"/>
<path d="M36.9392 22.3724C34.4878 18.7089 28.7609 12.9702 24.1118 11.1067C22.717 10.5455 21.1215 10.2067 19.5049 10.0161L19.526 57.2601H25.0944V18.2536C29.8387 21.1759 33.8961 26.9253 36.9286 31.3405C39.9611 26.9253 44.008 21.1759 48.7522 18.2536V57.2601H54.3207L54.3418 10.0161C52.7357 10.2067 51.1297 10.5455 49.7455 11.1067C45.1069 12.9702 39.38 18.7195 36.9392 22.3724Z" fill="#F93C3C"/>
<path d="M68.353 0.0317642V61.4637H47.1043C42.8884 61.4637 39.2747 63.2213 36.9396 66.0589C34.6044 63.2213 30.9908 61.4637 26.7749 61.4637H5.55785V0H0V67.0331H26.7749C31.0542 67.0331 34.1501 69.9659 34.1501 74H39.7185C39.7185 69.9659 42.825 67.0436 47.0937 67.0436H73.858V0.0317642H68.3425H68.353Z" fill="#F93C3C"/>
</g>
<defs>
<clipPath id="clip0_130_3184">
<rect width="195" height="74" fill="white"/>
</clipPath>
</defs>
</svg>
